<svg xmlns="http://www.w3.org/2000/svg" xmlns:xlink="http://www.w3.org/1999/xlink" width="44" height="61" viewBox="0 0 44 61"><defs><clipPath id="a"><rect width="44" height="61" transform="translate(-14 53)" fill="#fff"/></clipPath></defs><g transform="translate(14 -53)" clip-path="url(#a)"><path d="M25.99,12.423a11.531,11.531,0,0,1-2.977-4.71c-.3-.912-.3-2.7-1.107-3.29a2.358,2.358,0,0,0-1.925-.137c-1.353.324-2.666.872-2.719,2.453-.083,2.5,1.607,4.768,2.1,7.146a1.352,1.352,0,0,1-1.335,1.659,6.945,6.945,0,0,1-1.787-.847v-.325c2.075-.618,1.472-2.667.844-4.223a3.535,3.535,0,0,0-1.037-1.666c-1.518-1.073-2.8,1.048-4.193.746-.522-.113-.94-.672-1.3-1.029a8.684,8.684,0,0,0-2.6-2.153C6.588,5.531,4.539,7.115,4.444,8.525A2.723,2.723,0,0,0,5.2,10.15a6.9,6.9,0,0,0-3.977,1.84c-.812.958-.189,2.955.893,3.465.773.364,1.43-.21,2.109-.512a6.731,6.731,0,0,1,2.436-.571A13.659,13.659,0,0,0,4.21,19.244c-.209.833-.13,1.8-.4,2.6A14.809,14.809,0,0,1,2.57,23.792a7.218,7.218,0,0,0-.648,4.872A11.044,11.044,0,0,0,3.248,32.4c.517.8,1.473,1.406,1.547,2.436a5.686,5.686,0,0,1-.5,1.949,16.875,16.875,0,0,0-.706,3.573A20.964,20.964,0,0,0,8.45,55.624a34.769,34.769,0,0,0,5.522,4.853c2.534,1.933,5.672,4.428,9.095,3.464a9.163,9.163,0,0,0,3.9-2.633c2.483-2.509,4.211-5.7,6.408-8.445,1.06-1.327,2.352-2.428,3.425-3.735a16.389,16.389,0,0,0,2.724-5.035,17.427,17.427,0,0,0,.849-8.608c-.2-1.127-1.093-2.13-1.174-3.248a12.317,12.317,0,0,1,.409-2.111,30.727,30.727,0,0,0,.028-3.248,3.49,3.49,0,0,0,2.267,0c.99-.525,1.692-2.413,1.023-3.389-.691-1.008-2.812-1.481-3.94-1.8.753-.255,1.812-.183,2.353-.836,1.123-1.356.039-4.62-1.541-5.188s-3.779.613-5.359.784a1.606,1.606,0,0,1-1.723-1.257c-.063-.742.676-1.675,1.043-2.274a29.243,29.243,0,0,1,2.678-3.9C37,8.361,37.9,7.907,38.195,7.061c.471-1.355-.722-4.079-2.46-3.612-1.706.458-2.911,2.252-4.06,3.452-.008-.985.032-2.735-.585-3.549-.818-1.08-3.32-.635-3.934.48-.346.629-.023,1.29.08,1.932a11.135,11.135,0,0,1,.053,1.787,12.206,12.206,0,0,1-1.3,4.872m3.9-8.608a3.172,3.172,0,0,1-1.624.65c.376-.535,1-.569,1.624-.65m.487.65c.092,2.139.044,4.2,0,6.334,1.675-1.866,2.607-4.572,5.035-5.684.21.567.882,1.34.808,1.949-.082.673-.944,1.271-1.336,1.787a34.794,34.794,0,0,0-3.063,4.71,3.1,3.1,0,0,0-.533,2.274c.26.731,1.034,1.218,1.526,1.786l-.162.162a7.859,7.859,0,0,1-.974-.812l.487.974c-.6-.344-1.054-.889-1.624-1.292a7.205,7.205,0,0,0-3.573-1.306v.325a5.257,5.257,0,0,1,4.547,2.6,8.464,8.464,0,0,1-1.137-.65,3.6,3.6,0,0,1,.65.974,9.032,9.032,0,0,0-1.787-1.137,7.445,7.445,0,0,1,1.462,1.3c-.818.029-1.4-.619-2.111-.974a5.639,5.639,0,0,1,1.462,1.462l-.974-.487.162.325a8.343,8.343,0,0,0-2.923-.953c-2.262-.056-4.25,1.852-4.913,3.877-.394,1.2.013,2.408-.265,3.573-.272,1.139-1.422,1.847-1.643,3.086-.325-.137-1.181-.832-1.521-.623s.242.776.39.913a4.984,4.984,0,0,0,2.755,1.125,16.664,16.664,0,0,0,4.71-.427c.663-.112,1.463-.456,2.111-.144,1.28.617,1.686,2.508.162,3.1-.94.362-2.4-.042-3.41-.042a9.474,9.474,0,0,0,2.761.325,6.1,6.1,0,0,1-2.436.929,4.976,4.976,0,0,0-2.761,1.832,5.563,5.563,0,0,1,2.761-1.462c-.312.76-.592,1.548-.974,2.274.672-.671.758-1.739,1.5-2.353a6.541,6.541,0,0,1,1.914-.744A12.257,12.257,0,0,0,29.4,32.237a10.83,10.83,0,0,1-.634,4.223c-.946,2.1-3.966,4.322-6.349,4.206-1.289-.063-2.257-.887-3.411-1.342a5.073,5.073,0,0,0-1.949-.265,17.042,17.042,0,0,1,3.573,1.295,3.493,3.493,0,0,1,1.3.817c-1.51.2-3.555.739-3.9,2.436,1.372-2.153,4.128-2.132,6.334-3,1.554-.61,2.573-1.752,3.9-2.686-.667,2.312-2.589,4.283-4,6.172-.546.731-1.045,1.872-1.864,2.324-1.888,1.043-5.2-.72-6.155,2.061a3.106,3.106,0,0,1,2.436-1.462L17.707,48.8a4.8,4.8,0,0,1,1.462-1.62,9.513,9.513,0,0,1,3.248-.329c-.713,2.613-2.38,4.5-3.9,6.659a17.511,17.511,0,0,0,2.761-3.735,6.988,6.988,0,0,1-.156,2.274c-.1,2.194.017,4.913,1.943,6.334a14.862,14.862,0,0,1-1.228-3.411,20.258,20.258,0,0,1,.091-4.06c.8.909.93,2.437,1.3,3.573.022-1.5-.881-2.793-.951-4.223-.1-2.12,1.913-4.606,3.131-6.172a5.679,5.679,0,0,1,1.718-1.787c.169,1.253.5,2.47.622,3.735.164,1.722-.146,3.3,1.327,4.547-1.331-1.977-.91-3.944-1.183-6.172-.107-.874-.668-2.065-.438-2.923a9.912,9.912,0,0,1,.954-1.786A14.67,14.67,0,0,0,29.726,36.3c1.571.924,2.068,3.22,2.4,4.872a6.846,6.846,0,0,1,.294,1.787c-.074,1.056-.563,2.013-.586,3.086h.325a4.854,4.854,0,0,1,.65-2.6,5.98,5.98,0,0,0,1.624,1.786,11.392,11.392,0,0,1-1.949-4.547,7.754,7.754,0,0,1,1.624,1.137c-.468-.659-1.162-1.118-1.6-1.793-.454-.7-.557-1.558-1.015-2.267a8.012,8.012,0,0,1-1.375-2.111,5.585,5.585,0,0,1,.078-1.786c.059-.86.015-1.736.015-2.6,1.708,1.232,1.46,3.728,3.573,4.547a3.291,3.291,0,0,1-1.462-1.786l1.3.65a9.252,9.252,0,0,1-1.371-1.167c-.413-.528-.543-1.22-.966-1.756-.738-.934-1.393-1.358-1.561-2.6,3.422.27,7.029,1.824,8.639,5.035a5.417,5.417,0,0,1,.677,3.411,4.691,4.691,0,0,1-1.388,2.318c-.848.624-1.732.509-2.244,1.58a3.325,3.325,0,0,1,1.949-1.137c-.424,1-1.27,1.757-1.7,2.761a4.808,4.808,0,0,0-.249,1.949h.325c.007-2.544,2.016-4.548,3.248-6.659.346.886-.071,2.331-.27,3.248-.666,3.077-2.207,6.679-4.927,8.494-1.675,1.118-3.834,1.04-4.872,3.037a8.686,8.686,0,0,1,4.223-2.436,32.2,32.2,0,0,1-2.13,2.923,16.6,16.6,0,0,1-1.526,2.048c-.681.672-1.637,1.039-2.352,1.7-1.98,1.834-3.585,3.762-6.5,3.4.83.777,2,.421,2.923-.045,2.09-1.052,3.322-3.2,5.36-4.34a13.507,13.507,0,0,1-1.443,2.111c-1.275,1.671-2.862,3.733-5.054,4.147-3.377.637-6.694-2.5-9.095-4.439a17.749,17.749,0,0,1-2.761-2.468,10.727,10.727,0,0,1,5.36,2.436A7.861,7.861,0,0,0,13.972,56.6a2.206,2.206,0,0,1,1.462,0,5.169,5.169,0,0,0-1.949-.359,10.621,10.621,0,0,1-3.248-1.008,6.369,6.369,0,0,1-2-2.206,11.239,11.239,0,0,1-1.6-2.923c-.523-1.822.329-3.562,1.009-5.2a15.372,15.372,0,0,1,.332,1.624A5.548,5.548,0,0,0,9.424,48.8c-.929-1.424-1.767-3.149-1.033-4.872.677-1.591,2.263-2.625,1.845-4.547,2.322,1.64,3.564,5.153,2.182,7.8-.9,1.73-2.462,2.765-2.507,4.872.588-1.558,1.045-3,2.436-4.06-.2,1.558-1.061,4.858.65,5.847a17.474,17.474,0,0,0-.325-2.436,8.968,8.968,0,0,1,1.137.974,7.039,7.039,0,0,1-1.027-1.624c-.277-1.006.267-2.443.539-3.411.848.906,1.111,2.152,1.949,3.086a15.041,15.041,0,0,1-1.717-3.735,11.37,11.37,0,0,1,.221-2.436,5.522,5.522,0,0,0-.349-1.949c-.582-1.76-2-2.914-3.028-4.385a6.7,6.7,0,0,1,3.55.807,5.906,5.906,0,0,1,.835.979,2.923,2.923,0,0,0-2.274-1.786,2.291,2.291,0,0,1,2.274,0c-1.486-1.41-3.395.613-4.963-.585A4.747,4.747,0,0,1,8.665,35.81a3.277,3.277,0,0,1-.326-2.917c.383-.749,1.984-1.961,2.872-1.837a2.935,2.935,0,0,1,2.2,2.318,5.825,5.825,0,0,1-.087,1.787,3.748,3.748,0,0,0,.162-2.6c2.394.763,3.41,2.658,3.411,5.035a2.038,2.038,0,0,0,.2-2.111,6.416,6.416,0,0,0-3.285-3.411,4.9,4.9,0,0,1,3.861.027c.4.253.555.76.849,1.11-.732-2.459-3.322-1.285-5.2-1.669a4.783,4.783,0,0,1-1.462-.767v-.325c2.47-1.282,2.169-3.826,2.506-6.172a10.21,10.21,0,0,1,2.395-5.36c1.119-1.252,3.856-2.567,4.012-4.385a6.449,6.449,0,0,0-.823-2.761,15.216,15.216,0,0,1-1.431-5.2,6.221,6.221,0,0,0,2.923-.487,13.174,13.174,0,0,0,2.675,6.332c.464.557,1.375,1.473,2.2,1.313s1.138-1.3,1.418-1.96a12.077,12.077,0,0,0,.7-6.821c.565.121.539.6.614,1.137A14.133,14.133,0,0,1,28.913,9.5a7.625,7.625,0,0,0,.162-4.71c.9.264.894,2,.65,2.761.632-.834.194-1.985,0-2.923l.65-.162m5.684.162a2.548,2.548,0,0,1,.974,2.111c-.566-.518-1.248-1.313-.974-2.111m-14.942.65a2.63,2.63,0,0,1-2.6.812,4.779,4.779,0,0,1,2.6-.812M30.7,11.936c.818-.493,1.154-1.663,1.7-2.436.887-1.265,2.094-2.207,3.014-3.411-.9-.085-1.491.638-2.036,1.3A18.023,18.023,0,0,0,30.7,11.936M7.475,6.9A2.881,2.881,0,0,1,5.851,8.2,3.152,3.152,0,0,1,7.475,6.9m3.573,3.9c-.932-.262-1.5-1.079-2.274-1.624.56.686,1.6,1.336,1.462,2.274L8.45,10.15c.49.553,1.084.891,1.3,1.624l-1.3-.65a6.881,6.881,0,0,1,.812,1.137l-1.624-.325a3.758,3.758,0,0,1,1.137.812H7.313a3.6,3.6,0,0,0,.974.162v.325a19.08,19.08,0,0,0-5.36.974l-.65-1.624a10.928,10.928,0,0,1,3.086-1.378c.8-.17,1.629-.1,2.436-.247A13.9,13.9,0,0,1,5.689,8.85,5.465,5.465,0,0,0,7.638,7.389,7.88,7.88,0,0,1,11.048,10.8m8.283-3.411a3.587,3.587,0,0,0,.162.812c.226-.391.151-.49-.162-.812m.325,1.137c.192,2.349,1.845,4.271,1.949,6.659h.325a17.431,17.431,0,0,0-1.949-6.659h-.325m-3.248,4.547A4.768,4.768,0,0,1,14.946,9.5c1.2.374,1.768,2.458,1.462,3.573M14.459,9.662c.005.622.351,1.538.128,2.109-.408,1.047-1.9,1.672-2.564,2.6a11.273,11.273,0,0,1,3.086-2.111c-.212.679-.75.921-1.3,1.338a8.07,8.07,0,0,0-1.787,1.748c.865-.607,2.653-2.735,3.735-1.787-2.642,1.235-5.457,3.713-5.522,6.821-1.193-.732-.214-2.322.325-3.248a4.058,4.058,0,0,0-1.3,3.086H8.775a15.1,15.1,0,0,1,.162-1.787c-.33.539-.325,1.22-.654,1.723-.531.813-2.343,1.428-3.244,1.687.158-3.676,2.32-6.929,4.872-9.417a9.468,9.468,0,0,1,4.547-2.763m-2.436,2.111c.481.013.578-.064.812-.487a1.368,1.368,0,0,0-.812.487m-5.36,6.984c.888-.983,1.273-2.375,2.16-3.411.823-.962,2.352-1.857,2.712-3.086-2.246.87-4.518,4.134-4.872,6.5M2.116,13.235l.325.974a.976.976,0,0,1-.325-.974M14.946,14.7a7.82,7.82,0,0,0,2.923,2.111,2.661,2.661,0,0,1-1.3,0l.812.487a2.164,2.164,0,0,1-1.624,0l.974.65a3.181,3.181,0,0,1-1.462-.162,6.249,6.249,0,0,1,.974.812A6.3,6.3,0,0,1,13,16.159l.65.325-.325-.65.974.325a3.476,3.476,0,0,1-.487-.812,5.943,5.943,0,0,1,1.137-.65m25.5,5.522c-1.1-.865-1.137-2.107-1.137-3.411,1.183.37,1.4,2.355,1.137,3.411M38.82,16.971a9.979,9.979,0,0,0,.325,2.274,7.66,7.66,0,0,0-4.06,1.462c1.114-.493,3.568-1.476,4.547-.487a23.877,23.877,0,0,0-5.522,1.472,5.112,5.112,0,0,0-2.484,1.616c-.949,1.391-.221,3.591-1.662,4.772-.59.483-1.933.32-2.675.423a27,27,0,0,1-7.308.487c.138-1.344,1.036-2.171,1.949-3.086.409-.41,1.192-.976,1.177-1.624S22.286,23,21.93,22.493a3.289,3.289,0,0,1,1.3.65l-1.137-1.3a4.864,4.864,0,0,1,1.462.65c-.38-.471-.937-.722-1.137-1.3a12.047,12.047,0,0,1,1.787.65,4.99,4.99,0,0,1-1.462-1.137,16.15,16.15,0,0,1,1.787.65c-.494-.378-1.149-.639-1.137-1.3l1.786.974-1.462-1.3c1.62-.2,3,1.437,4.71,1.051,1.259-.284,2.286-1.306,3.411-1.9a15.612,15.612,0,0,1,6.984-1.913m-26.148.487c.509.5,1.657,1.151,1.908,1.816.165.439-.2.9-.386,1.269a11.368,11.368,0,0,0-.872,2.436,3.471,3.471,0,0,1-.65-5.522m2.6,8.608a9.472,9.472,0,0,0,.435-2.111,9.363,9.363,0,0,1,1.3-2.923,9.21,9.21,0,0,1,1.835-2.058c.6-.5,1.261-.8,1.624-1.515a4.658,4.658,0,0,0-3.1,2.111,10.292,10.292,0,0,0-2.095,6.5M29.4,21.843a28.581,28.581,0,0,1,3.411-2.392,27.39,27.39,0,0,1,4.223-1.343,3.554,3.554,0,0,0-2.274.187c-1.9.52-4.488,1.679-5.36,3.548m-11.693-.162a8.635,8.635,0,0,1,3.086-2.761c-1.346-.368-2.862,1.605-3.086,2.761m-6.334,1.787a2.92,2.92,0,0,0-.65.65c.545-.284.827-.434,1.3,0a3.655,3.655,0,0,0-1.3,1.3c.65-.428,1.14-.943,1.949-.812-.785.85-1.918,1.172-2.436,2.274,1.046-.715,1.962-1.7,3.248-1.949-.186,1.138-1.6,1.254-2.274,2.111a14.136,14.136,0,0,1,2.274-.974c-.336,1.017-1.322,1.214-1.787,2.111a14.819,14.819,0,0,1,1.462-.812c-.134,1.165-1.468,1.538-2.274,2.274l1.786-.812c-.8,1.107-1.964,1.358-3.086,2.023-1.1.651-1.92,1.593-3.248,1.713L7.8,30.938c-.905.47-1.515,1.552-2.6,1.462a8.021,8.021,0,0,1,2.111-2.436,4.864,4.864,0,0,0-2.274,1.949H4.715C4.613,30.7,5.98,30,6.826,29.314a3.552,3.552,0,0,0-2.274,1.624H4.227c-.249-1.533,1.737-2.531,2.923-3.086C5.868,28.01,4.927,29.1,3.9,29.8c-.266-1.155,1.167-1.633,1.787-2.436l-2.111,1.3A3.725,3.725,0,0,1,4.715,27.04a9.113,9.113,0,0,0-1.3.812c.183-1.185,1.282-1.834,2.111-2.6a4.591,4.591,0,0,0-1.949,1.462c-.485-1.2,1.037-1.914,1.787-2.6a5.51,5.51,0,0,0-1.624.812c.724-1.678,2.15-2.512,3.735-3.288a3.3,3.3,0,0,1,2.111-.511,2.553,2.553,0,0,1,1.445,1.361,2.929,2.929,0,0,1,.342.975m25.336-1.949a15.34,15.34,0,0,0,4.547,2.436,9.93,9.93,0,0,0-.325,1.787c-2-.006-3.112-1-4.872-1.713a13.569,13.569,0,0,0-3.411-.723c.489-.31.914-.123,1.462,0l-.65-.65,2.274.65a9.917,9.917,0,0,0-1.624-.812c.732-.429,1.291-.1,1.949.325a3.142,3.142,0,0,0-.812-.65c.782-.5,1.294.238,1.949.655a13.271,13.271,0,0,0,1.787.807c-.783-.792-1.895-1.038-2.6-1.949l.325-.162M24.2,21.843a1.148,1.148,0,0,0,.487.325,1.148,1.148,0,0,0-.487-.325m13.318,9.745.162-.812a2.14,2.14,0,0,1-.65.487,4.832,4.832,0,0,1,.65-1.462,2.846,2.846,0,0,0-.812,1.137h-.325l-.65-.65.487-1.462-.812,1.3c-.654-.986.8-2.137-.162-3.248a5.145,5.145,0,0,1-.487,2.761H34.6l-.162-.162.325-1.3-.65,1.137-.487-.162a11.284,11.284,0,0,0,.487-1.462,2.834,2.834,0,0,0-.65,1.3l-.812-.162a5.473,5.473,0,0,0,.974-2.6c-.545.885-.593,2.234-1.786,2.436l.65-1.624c-.571.562-.805,1.226-1.624,1.462a28.411,28.411,0,0,0,.982-3.086c.049-.412.035-1.182.414-1.451.508-.36,1.784.1,2.339.221,2.768.62,4.216,2.443,3.829,5.29-.112.822-.132,1.664-.905,2.111m4.547-7.471a2.178,2.178,0,0,1-.65,1.462l.325-1.462h.325M24.2,24.279c-.865,1.667-3.043,2.558-3.248,4.547.545-.356.762-.964,1.19-1.447.92-1.039,2.129-1.7,2.545-3.1H24.2M37.2,28.664l-.812,1.787c.567-.445,1.069-1.042.812-1.787M7.151,34.348a5.568,5.568,0,0,0,1.315,2.923c.779.966,1.818,1.889,1.484,3.248a2.358,2.358,0,0,1-.868,1.461c-1.236.84-3.025.457-3.393,2.275.65-1.295,1.712-1.515,3.086-1.624a19.272,19.272,0,0,0-2.6,6.172,7.987,7.987,0,0,1-1.014-3.411,17.306,17.306,0,0,1,.474-8.12,6.441,6.441,0,0,1,1.515-2.923M18.357,53.513a3.434,3.434,0,0,0-.487,1.624,2.65,2.65,0,0,0,.487-1.624m-2.436,4.71a4.9,4.9,0,0,0,.487.974C16.474,58.728,16.27,58.529,15.921,58.223Z" transform="translate(-15.099 49.83)" fill="#027c93" opacity="0.4"/></g></svg>