<svg xmlns="http://www.w3.org/2000/svg" width="310.213" height="450.108" viewBox="0 0 310.213 450.108"><path d="M185.054,73.74c-10.167-10.174-17.287-20.77-21.814-34.514-2.2-6.686-2.17-19.767-8.116-24.11-4.017-2.934-9.606-2.08-14.106-1C131.107,16.483,121.48,20.5,121.1,32.085c-.607,18.3,11.777,34.939,15.426,52.367,1.195,5.712-3.26,13.016-9.784,12.156-4.555-.6-8.984-4.288-13.092-6.205v-2.38c15.2-4.529,10.789-19.543,6.188-30.944-1.76-4.363-3.594-9.377-7.6-12.208C101.112,37,91.747,52.548,81.511,50.335c-3.827-.827-6.892-4.924-9.521-7.54-5.389-5.36-11.747-13.04-19.042-15.78-10.073-3.782-25.086,7.822-25.783,18.16-.307,4.555,3.089,8.421,5.55,11.9-9.032.794-23.144,6.411-29.142,13.483-5.954,7.02-1.387,21.654,6.548,25.4C15.785,98.627,20.6,94.414,25.574,92.2a49.328,49.328,0,0,1,17.852-4.183c-8.044,10.466-14.746,22.843-17.977,35.7-1.534,6.1-.953,13.223-2.956,19.042-1.8,5.232-6.447,9.407-9.064,14.282-5.914,11.017-7.172,23.476-4.746,35.7,1.816,9.152,4.621,19.464,9.713,27.374,3.789,5.885,10.8,10.3,11.34,17.852.354,4.925-2.27,9.684-3.64,14.282a123.664,123.664,0,0,0-5.176,26.183c-2.8,40.715,8.8,80.645,35.6,111.874,11.86,13.821,26.047,24.567,40.464,35.567,18.57,14.168,41.564,32.451,66.649,25.387,11.434-3.219,20.394-11.049,28.559-19.3,18.2-18.385,30.858-41.736,46.955-61.888,7.766-9.722,17.238-17.792,25.1-27.374,8.948-10.91,15.328-23.621,19.959-36.895,6.884-19.734,9.953-42.409,6.224-63.078-1.489-8.261-8.012-15.608-8.6-23.8-.374-5.2,2.447-10.327,3-15.472.839-7.806.207-15.956.207-23.8,4.949,1.178,11.866,2.484,16.611-.033,7.253-3.847,12.4-17.685,7.5-24.835-5.065-7.385-20.605-10.854-28.871-13.217,5.519-1.869,13.277-1.342,17.241-6.127,8.229-9.934.286-33.858-11.291-38.018s-27.695,4.493-39.274,5.746c-5.264.57-12.136-3.466-12.625-9.208-.464-5.441,4.951-12.272,7.64-16.661,5.934-9.688,12.171-19.963,19.624-28.559,4.143-4.776,10.752-8.11,12.908-14.3,3.455-9.927-5.293-29.891-18.026-26.472-12.5,3.357-21.335,16.5-29.754,25.3-.06-7.218.232-20.044-4.285-26.008-5.991-7.912-24.332-4.653-28.826,3.52-2.533,4.606-.171,9.454.589,14.157.694,4.285.394,8.766.387,13.092-.021,13.3-4.519,23.689-9.521,35.7m28.564-63.078c-3.58,2.888-7.377,4.082-11.9,4.761,2.758-3.919,7.344-4.171,11.9-4.761m3.57,4.761c.672,15.671.323,30.764,0,46.416,12.274-13.673,19.1-33.506,36.895-41.655,1.542,4.158,6.466,9.823,5.925,14.282-.6,4.935-6.921,9.317-9.794,13.092a254.978,254.978,0,0,0-22.445,34.514c-2.486,4.692-5.831,11.249-3.907,16.662,1.9,5.355,7.574,8.924,11.179,13.092l-1.19,1.19a57.588,57.588,0,0,1-7.141-5.951l3.57,7.141c-4.414-2.524-7.726-6.518-11.9-9.47A52.8,52.8,0,0,0,192.2,95.163v2.38c12.57.105,27.763,7.216,33.324,19.042a62.024,62.024,0,0,1-8.331-4.761,26.4,26.4,0,0,1,4.761,7.141c-4.371-2.985-8.114-6.4-13.092-8.331,3.9,3.01,7.692,5.608,10.711,9.521-6,.214-10.235-4.533-15.472-7.141,3.911,3.387,8.238,6.122,10.711,10.711l-7.141-3.57,1.19,2.38c-6.908-2.872-13.732-6.8-21.423-6.986-16.574-.408-31.143,13.571-36,28.409-2.889,8.815.094,17.645-1.945,26.183-1.992,8.347-10.42,13.538-12.038,22.613-2.385-1.007-8.657-6.1-11.145-4.562-2.551,1.576,1.773,5.687,2.86,6.689,5.433,5.015,13,7.3,20.186,8.241,11.1,1.445,23.559-1.282,34.514-3.133,4.859-.82,10.723-3.34,15.467-1.053,9.383,4.52,12.359,18.38,1.19,22.689-6.886,2.656-17.588-.307-24.988-.307,6.549,1.99,13.409,2.376,20.233,2.38-4.919,4.336-11.712,4.957-17.852,6.809-8.225,2.482-15.16,6.377-20.233,13.424,6.38-5.16,11.892-9.462,20.233-10.711-2.284,5.569-4.338,11.343-7.141,16.662,4.925-4.915,5.556-12.742,10.965-17.242,3.837-3.191,9.484-3.688,14.028-5.453,5.2-2.02,9.571-5.345,14.282-8.249-.027,9.89-.534,21.813-4.648,30.944-6.935,15.4-29.06,31.671-46.529,30.819-9.446-.461-16.543-6.5-24.993-9.837-4.718-1.864-9.287-1.936-14.282-1.94,9.506,2.836,17.229,4.642,26.183,9.487,3.451,1.867,7.155,2.831,9.521,5.985-11.065,1.491-26.052,5.416-28.564,17.852,10.054-15.775,30.249-15.624,46.416-21.975,11.385-4.471,18.853-12.842,28.564-19.68-4.89,16.942-18.971,31.383-29.309,45.226-4,5.358-7.657,13.718-13.661,17.034-13.839,7.642-38.112-5.277-45.1,15.1,4.482-6.883,9.8-9.522,17.852-10.711l-7.141,13.092c3.079-4.186,5.91-9.433,10.716-11.868,5.873-2.978,17.172-2.129,23.8-2.414-5.226,19.146-17.438,32.989-28.564,48.8,8.517-8.518,14.159-17.075,20.233-27.374,1.607,5.226-.9,11.229-1.144,16.662-.7,16.078.127,36,14.235,46.416-3.47-8.337-7.573-15.936-9-24.993-1.567-9.96.242-19.832.668-29.754,5.869,6.658,6.812,17.856,9.521,26.183.159-10.979-6.453-20.471-6.968-30.944-.764-15.537,14.021-33.753,22.945-45.226,3.754-4.825,7.068-10.289,12.587-13.092,1.237,9.182,3.675,18.1,4.558,27.374,1.2,12.62-1.074,24.159,9.724,33.324C197.914,338.942,201,324.527,199,308.2c-.787-6.405-4.9-15.135-3.211-21.423,1.232-4.594,4.815-8.88,6.992-13.092a107.505,107.505,0,0,0,9.651-24.993c11.515,6.771,15.155,23.6,17.615,35.7.865,4.256,2.458,8.711,2.153,13.092-.539,7.738-4.129,14.753-4.3,22.613h2.38c.056-6.7,1.148-13.3,4.761-19.042,3.326,5.233,6.814,9.5,11.9,13.092-7.409-11.249-11.779-20.037-14.282-33.324a56.82,56.82,0,0,1,11.9,8.331c-3.428-4.826-8.518-8.192-11.73-13.138-3.329-5.128-4.081-11.414-7.436-16.616-3.253-5.042-8.543-9.5-10.075-15.472-1.113-4.332.274-8.755.57-13.092.432-6.305.107-12.724.107-19.042,12.518,9.03,10.7,27.321,26.183,33.324-5.187-3.619-8.75-6.965-10.711-13.092l9.521,4.761c-3.257-2.778-7.394-5.163-10.045-8.55-3.028-3.872-3.98-8.942-7.081-12.868-5.4-6.841-10.206-9.95-11.437-19.047,25.075,1.979,51.51,13.364,63.3,36.895,3.443,6.871,7.06,17.275,4.962,24.993-1.536,5.651-5.379,13.461-10.169,16.986-6.215,4.575-12.692,3.729-16.442,11.578,4.019-4.732,8.282-6.905,14.282-8.331-3.108,7.349-9.3,12.874-12.459,20.233-1.964,4.583-1.82,9.4-1.823,14.282h2.38c.051-18.643,14.773-33.326,23.8-48.8,2.534,6.492-.522,17.081-1.978,23.8-4.883,22.547-16.174,48.947-36.107,62.243-12.278,8.189-28.092,7.624-35.7,22.258,8.9-8.83,18.641-14.936,30.944-17.852-4.386,7.623-10.392,14.345-15.61,21.423-3.629,4.924-6.816,10.7-11.186,15.008-4.992,4.921-12,7.617-17.239,12.473-14.507,13.438-26.271,27.569-47.606,24.886,6.08,5.7,14.633,3.087,21.423-.33,15.316-7.707,24.341-23.48,39.275-31.8-2.794,5.612-6.777,10.495-10.573,15.472-9.34,12.242-20.975,27.358-37.033,30.387C134.124,446.8,109.819,423.8,92.222,409.6,85.293,404,77.588,398.453,71.99,391.511c15.215,2.95,27.409,7.585,39.275,17.852-3.871-5.046-9.057-8.348-14.282-11.9,3.669-1.526,6.894-.908,10.711,0-4.845-2.585-9.014-1.872-14.282-2.63-7.372-1.061-17.264-3.782-23.8-7.387-6.485-3.574-10.654-10.17-14.675-16.166-4.353-6.491-9.582-13.841-11.76-21.423-3.836-13.35,2.411-26.106,7.392-38.085,1.58,3.756,1.259,7.95,2.433,11.9,1.992,6.707,5.9,11.677,10.659,16.662-6.806-10.432-12.948-23.074-7.572-35.7,4.961-11.656,16.584-19.239,13.522-33.324,17.017,12.021,26.116,37.76,15.99,57.127-6.629,12.679-18.041,20.265-18.37,35.7,4.31-11.421,7.657-21.951,17.852-29.754-1.475,11.42-7.775,35.6,4.761,42.846a128.05,128.05,0,0,0-2.38-17.852,65.715,65.715,0,0,1,8.331,7.141c-2.364-3.784-6.328-7.556-7.524-11.9-2.029-7.369,1.957-17.906,3.953-24.993,6.213,6.636,8.144,15.771,14.282,22.613-4.173-7.965-11.048-18.552-12.58-27.374-1-5.763,1.325-12.074,1.62-17.852.243-4.759-1.074-9.794-2.558-14.282-4.266-12.9-14.624-21.357-22.186-32.134,8.29.356,19.091.818,26.013,5.914,2.574,1.9,4.056,4.819,6.122,7.178-2.655-7.743-9.116-11.011-16.662-13.092,5.215-3.562,11.121-2.339,16.662,0-10.887-10.329-24.878,4.49-36.372-4.285-3.6-2.75-6.356-7.248-8.468-11.187-3.323-6.2-5.827-14.652-2.388-21.375,2.806-5.485,14.542-14.37,21.044-13.464,8.041,1.119,14.785,9.526,16.108,16.987.791,4.457-.078,8.673-.636,13.092,2.974-6.179,2.759-12.451,1.19-19.042,17.54,5.589,24.991,19.479,24.993,36.895,3.992-4.611,3.21-9.87,1.458-15.472C116.229,231.12,106,223.434,95.793,217.748c7.279-3.268,21.232-4.281,28.292.2,2.922,1.852,4.07,5.57,6.222,8.136-5.368-18.02-24.346-9.416-38.085-12.234-4-.82-7.3-3.525-10.711-5.619v-2.38c18.1-9.391,15.894-28.039,18.362-45.226,2.065-14.379,7.825-28.4,17.55-39.275,8.2-9.175,28.26-18.813,29.4-32.134.611-7.144-3.531-13.8-6.029-20.233-4.7-12.1-10.378-24.956-10.486-38.085,7.671,1.5,14.145-1.585,21.423-3.57,2.145,15.917,9.277,34.03,19.6,46.4,3.4,4.079,10.078,10.794,16.087,9.618,6.028-1.179,8.338-9.506,10.391-14.362a88.5,88.5,0,0,0,5.1-49.986c4.142.888,3.951,4.4,4.5,8.331,1.154,8.317-.062,16.771-.926,24.993,5.176-10.74,3.292-23.2,1.19-34.514,6.608,1.933,6.551,14.679,4.761,20.233,4.632-6.114,1.419-14.547,0-21.423l4.761-1.19m41.655,1.19c5.231,4.134,6.841,8.929,7.141,15.472-4.144-3.8-9.147-9.62-7.141-15.472M149.35,21.373a19.275,19.275,0,0,1-19.042,5.951c5.295-3.961,12.5-5.652,19.042-5.951m70.219,48.8c5.991-3.613,8.456-12.189,12.425-17.852,6.5-9.273,15.342-16.171,22.089-24.993-6.63-.622-10.923,4.674-14.92,9.521a132.074,132.074,0,0,0-19.595,33.324M49.377,33.275c-2.608,4.839-6.826,7.569-11.9,9.521,3.237-4.553,6.569-7.708,11.9-9.521M75.56,61.838c-6.831-1.917-10.988-7.9-16.662-11.9C63,54.963,70.6,59.73,69.609,66.6L56.518,57.078c3.592,4.052,7.945,6.532,9.521,11.9l-9.521-4.761c2.157,2.791,4.384,5.171,5.951,8.331l-11.9-2.38c3,1.895,6.216,3.117,8.331,5.951H48.187a26.407,26.407,0,0,0,7.141,1.19v2.38c-14.437,0-25.574,3.394-39.275,7.141l-4.761-11.9c6.968-4.067,14.65-8.4,22.613-10.1,5.837-1.245,11.937-.708,17.852-1.806-5.431-5-11.189-9.4-15.472-15.472A40.049,40.049,0,0,0,50.567,36.845c9.662,4.306,20.542,15.448,24.993,24.993m60.7-24.993a26.285,26.285,0,0,0,1.19,5.951c1.658-2.863,1.1-3.591-1.19-5.951m2.38,8.331c1.406,17.211,13.519,31.3,14.282,48.8h2.38c-1.235-15.628-6.529-35.158-14.282-48.8h-2.38M114.835,78.5c-7.633-5.994-10.3-16.783-10.711-26.183,8.759,2.739,12.956,18.016,10.711,26.183M100.553,53.507c.038,4.557,2.569,11.27.938,15.455C98.5,76.636,87.535,81.216,82.7,88.022c6.687-5.786,14.316-12.281,22.613-15.472-1.553,4.979-5.5,6.75-9.521,9.806C90.829,86.125,86.3,90.067,82.7,95.163c6.338-4.447,19.438-20.041,27.374-13.092-19.364,9.054-39.992,27.207-40.465,49.986-8.742-5.366-1.567-17.016,2.38-23.8-7.054,5.54-8.836,14-9.521,22.613H58.9a110.617,110.617,0,0,1,1.19-13.092c-2.419,3.949-2.38,8.942-4.789,12.628-3.894,5.957-17.168,10.463-23.775,12.366,1.156-26.936,17-50.773,35.7-69.011,8.9-8.676,20.783-18.084,33.324-20.25M82.7,68.979c3.525.1,4.238-.467,5.951-3.57a10.027,10.027,0,0,0-5.951,3.57M43.426,120.156c6.505-7.2,9.332-17.4,15.829-24.993,6.032-7.048,17.233-13.6,19.875-22.613-16.457,6.376-33.11,30.294-35.7,47.606M10.1,79.691l2.38,7.141c-2.11-2.414-3.026-3.971-2.38-7.141M104.124,90.4a57.3,57.3,0,0,0,21.423,15.472c-3.211,1.153-6.142.42-9.521,0l5.951,3.57c-3.917,2.222-7.634.868-11.9,0l7.141,4.761c-3.892.626-6.918-.133-10.711-1.19,2.389,2.151,5.232,3.379,7.141,5.951-9.616-2.829-18.083-9.738-23.8-17.852l4.761,2.38-2.38-4.761,7.141,2.38a25.475,25.475,0,0,1-3.57-5.951,43.55,43.55,0,0,1,8.331-4.761m186.854,40.465c-8.073-6.34-8.33-15.439-8.331-24.993,8.667,2.712,10.285,17.258,8.331,24.993m-11.9-23.8c.017,5.867,1.081,10.976,2.38,16.662-9,.785-23.19,4.362-29.754,10.711,8.163-3.613,26.144-10.817,33.324-3.57-13.907,1.759-27.375,5.777-40.465,10.789-6.6,2.527-14.1,5.821-18.206,11.842-6.953,10.194-1.616,26.314-12.178,34.969-4.325,3.543-14.168,2.345-19.6,3.1-18.27,2.531-35.048,5.91-53.557,3.57,1.009-9.85,7.594-15.909,14.282-22.613,3-3.008,8.735-7.154,8.626-11.9-.109-4.832-6.014-9.369-8.626-13.092a24.1,24.1,0,0,1,9.521,4.761l-8.331-9.521a35.641,35.641,0,0,1,10.711,4.761c-2.781-3.453-6.866-5.29-8.331-9.521,4.593,1.091,8.738,2.975,13.092,4.761-3.748-2.671-8.174-4.457-10.711-8.331,4.663.9,8.589,3.338,13.092,4.761-3.619-2.772-8.418-4.682-8.331-9.521l13.092,7.141L168.392,127.3c11.871-1.465,21.977,10.532,34.514,7.7,9.222-2.084,16.755-9.572,24.993-13.912,15.367-8.1,33.706-13.973,51.177-14.021m-191.615,3.57c3.73,3.7,12.145,8.431,13.982,13.311,1.211,3.219-1.489,6.572-2.83,9.3A83.3,83.3,0,0,0,92.222,151.1c-14.51-7.825-17.306-29.71-4.761-40.465M106.5,173.713c2.345-4.881,2-10.262,3.189-15.472a68.611,68.611,0,0,1,9.544-21.423,67.494,67.494,0,0,1,13.45-15.084c4.4-3.664,9.239-5.888,11.9-11.1-9.819,1.012-16.962,7.888-22.733,15.472C111.021,140.346,106.5,156,106.5,173.713m103.543-30.944c8.42-5.861,15.705-12.875,24.993-17.531,9.951-4.988,20.509-6.541,30.944-9.843-5.334-2.217-11.291-.1-16.662,1.371-13.9,3.808-32.885,12.307-39.275,26m-85.691-1.19c7.14-8.18,12.22-15.747,22.613-20.233-9.863-2.7-20.974,11.762-22.613,20.233M77.94,154.67a21.4,21.4,0,0,0-4.761,4.761c4-2.079,6.062-3.183,9.521,0-4.044,2.786-7.158,5.172-9.521,9.521,4.764-3.135,8.357-6.91,14.282-5.951-5.753,6.232-14.055,8.588-17.852,16.662,7.665-5.24,14.377-12.464,23.8-14.282-1.361,8.343-11.73,9.188-16.662,15.472,5.648-2.433,10.622-5.693,16.662-7.141-2.461,7.449-9.685,8.9-13.092,15.472a108.6,108.6,0,0,1,10.711-5.951c-.98,8.537-10.754,11.273-16.662,16.662l13.092-5.951c-5.851,8.11-14.394,9.948-22.613,14.822-8.053,4.774-14.073,11.675-23.8,12.551l10.711-11.9c-6.632,3.441-11.1,11.377-19.042,10.711,3.214-7.586,9.714-12.213,15.472-17.852-7.124,2.422-12.4,8.236-16.662,14.282h-2.38c-.747-8.919,9.272-14.045,15.472-19.042-6.824.493-12.791,6.643-16.662,11.9h-2.38C23.746,198.185,38.3,190.868,47,186.8c-9.4,1.156-16.294,9.148-23.8,14.282-1.948-8.466,8.549-11.965,13.092-17.852l-15.472,9.521c1.426-5.084,4.662-8.189,8.331-11.9-3.475,1.587-6.352,3.812-9.521,5.951,1.34-8.682,9.391-13.442,15.472-19.042-5.845,1.986-10.279,6.088-14.282,10.711-3.557-8.829,7.6-14.03,13.092-19.042-4.545,1.077-7.95,3.525-11.9,5.951,5.306-12.3,15.755-18.407,27.374-24.092,4.592-2.247,10.2-5.03,15.467-3.743,4.981,1.218,8.164,5.777,10.587,9.977a21.463,21.463,0,0,1,2.51,7.147M263.6,140.388c9.758,8.317,21.461,13.25,33.324,17.852-1.009,4.413-2.173,8.546-2.38,13.092-14.647-.04-22.8-7.342-35.7-12.553-7.944-3.209-16.554-4.232-24.993-5.3,3.581-2.271,6.7-.9,10.711,0L239.8,148.72l16.662,4.761c-3.775-2.573-7.749-4.1-11.9-5.951,5.365-3.146,9.462-.752,14.282,2.38a23.027,23.027,0,0,0-5.951-4.761c5.733-3.653,9.483,1.742,14.282,4.8,4.056,2.583,8.727,3.968,13.092,5.913-5.741-5.8-13.887-7.606-19.042-14.282l2.38-1.19m-91.642,2.38a8.415,8.415,0,0,0,3.57,2.38,8.415,8.415,0,0,0-3.57-2.38m97.593,71.409,1.19-5.951a15.682,15.682,0,0,1-4.761,3.57,35.409,35.409,0,0,1,4.761-10.711,20.859,20.859,0,0,0-5.951,8.331h-2.38l-4.761-4.761,3.57-10.711-5.951,9.521c-4.794-7.227,5.858-15.661-1.19-23.8,0,7.436.152,13.587-3.571,20.233h-2.38l-1.19-1.19,2.38-9.521-4.761,8.331-3.57-1.19a82.692,82.692,0,0,0,3.57-10.711c-2.717,2.86-3.655,5.748-4.761,9.521l-5.951-1.19c3.681-6.177,6.766-11.73,7.141-19.042-3.993,6.489-4.345,16.373-13.092,17.852l4.761-11.9c-4.182,4.12-5.9,8.986-11.9,10.711,1.8-7.859,6.232-14.385,7.2-22.613.356-3.019.257-8.662,3.036-10.632,3.719-2.637,13.074.706,17.138,1.616,20.284,4.546,30.9,17.906,28.058,38.769-.82,6.022-.969,12.2-6.635,15.472m33.324-54.747c-.851,4.108-1.327,8.109-4.761,10.711l2.38-10.711h2.38m-130.917,1.19c-6.339,12.219-22.3,18.746-23.8,33.324,3.991-2.605,5.585-7.064,8.723-10.6,6.745-7.616,15.6-12.444,18.651-22.72h-3.57m95.212,32.134-5.951,13.092c4.156-3.263,7.837-7.637,5.951-13.092M47,234.411c.808,8.067,4.593,15.169,9.635,21.423,5.708,7.08,13.324,13.845,10.878,23.8-1.015,4.132-2.734,8.239-6.359,10.705-9.057,6.159-22.17,3.352-24.865,16.668,4.762-9.489,12.545-11.1,22.613-11.9-8.621,15.485-15.712,27.547-19.042,45.226-4.99-6.7-6.117-16.892-7.434-24.993-3.23-19.867-2.753-40.22,3.471-59.508,2.5-7.76,4.979-15.765,11.1-21.423m82.121,140.438a25.162,25.162,0,0,0-3.57,11.9c2.009-3.557,4.251-7.841,3.57-11.9m-17.852,34.514a35.935,35.935,0,0,0,3.57,7.141C115.323,413.067,113.827,411.607,111.265,409.363Z" transform="translate(-0.854 -2.734)" fill="#fff"/></svg>