<svg xmlns="http://www.w3.org/2000/svg" viewBox="0 0 899.33 168.77"><defs><style>.cls-1{fill:#fff;}</style></defs><g id="Capa_2" data-name="Capa 2"><g id="Capa_1-2" data-name="Capa 1"><g id="Capa_2-2" data-name="Capa 2"><g id="Capa_1-2-2" data-name="Capa 1-2"><g id="Capa_2-2-2" data-name="Capa 2-2"><g id="Capa_1-2-2-2" data-name="Capa 1-2-2"><path class="cls-1" d="M17.29,116.78Q-.38,96.35,0,66.53C.75,48.2,6.81,32.76,18.33,20.46,29.86,7.9,44,1.36,61,.83,79.58.31,95.55,5.54,109.16,16.54c11,8.89,6.54,17.53.52,21.2-2.35,1.3-3.92.78-4.45-1.57C99.75,13.92,85.34,2.93,62,2.93c-13.35,0-24.34,6.28-33,18.58S16.25,50.3,16.25,70.71q0,35.34,22,53.39c14.92,11.78,32.72,13.35,53.92,4.19,6.58-2.83,13.58-9.68,20.93-20.94l1.31-2.09c1.31-2.36,2.36-3.14,3.4-2.88,1.84.79,1.58,2.62-.52,5.5-13.35,20.41-31.41,30.36-54.18,29.58C44.51,137.19,29.33,130.12,17.29,116.78Z"/><path class="cls-1" d="M191.34,137.65c-18.58,0-34.28-6.54-46.85-19.63-12.3-13.08-18.58-29.31-18.58-48.94s6.28-35.85,18.58-48.68C157.06,7.58,172.75,1,191.34,1s34.29,6.55,46.59,19.37q18.82,19.23,18.82,48.68c0,19.63-6.28,35.86-18.84,48.94C225.63,131.11,209.92,137.65,191.34,137.65Zm54.18-41.87c3.93-15.18,1.83-31.15-5.76-47.64-8.37-17.27-19.89-29.57-34.55-36.68s-28.79-7.55-42.66-1c-13.35,6-21.72,16.76-25.65,32.2-3.66,15.18-1.57,31.14,6,47.89,8.12,17.54,19.37,29.84,34,36.91s29,7.06,43.18.26c13.4-6,21.78-16.7,25.44-31.93Z"/><path class="cls-1" d="M540.09,132.46l.26.79-.52.78c-18.58,7.07-28.79.53-30.1-19.1-11.51,11.51-27.74,19.89-42.14,20.94-18.58,1.3-32.19-2.62-41.09-11.52-8.63-8.9-13.08-19.37-13.08-31.15V33c0-6-5.24-8.9-9.16-8.9-1.31,0-1.84-1.31.26-1.57,6-.79,13.87-6.54,23.29-17.28V90c0,8.64,1.57,17.28,6.55,27.75,5.23,10.2,16.75,17,33.23,16,8.38-.52,17.54-5,27.22-13.35s14.66-16.49,14.66-24.08V33c0-6-5.23-8.9-9.16-8.9-1.31,0-1.83-1.31.26-1.57,6-.79,13.87-6.54,23.3-17.28V97.38c0,27.22,2.87,34.81,15.44,34.81Z"/><path class="cls-1" d="M564,78c2.61,20.67,11.51,35.85,27,46.06,15.44,10,30.89,11.52,46.07,4.71a43,43,0,0,0,22.77-21.2c2.09-4.45,3.14-5.23,4.45-5,1.83.78,1.57,2.62-.27,5.5-13.08,20.67-31.4,30.36-55.22,29.57-18.06-.78-33-7.33-44.49-20.15-11.26-12.83-17-29.32-17-49.47s6-36.38,18-48.68C577.61,7,593,1,611.63,1,624.45,1,636.75,5.46,648,14.36c11.52,8.64,18.32,21.46,20.41,38.21,0,2.09-1.57,2.62-3.4,2.62H563.21A112.34,112.34,0,0,0,564,78Zm-.79-24.34h92.13c-2.88-32.46-20.16-50.21-46.07-50.21-27,0-43.19,20.1-46.07,50.2Z"/><path class="cls-1" d="M787.49,30.7q-9.3,15.63-9.32,37.31c0,20.15,5.76,36.64,17,49.47,11.52,12.82,26.43,19.37,44.49,20.15,23.82.79,42.14-8.9,55.23-29.57,1.83-2.88,2.09-4.72.26-5.5-1.31-.26-2.36.52-4.45,5a42.87,42.87,0,0,1-22.77,21.2c-15.18,6.81-30.62,5.24-46.06-4.71-15.45-10.21-24.34-25.39-27-46.06a111.84,111.84,0,0,1-.79-22.77v-1.6A84.66,84.66,0,0,1,796,42.23c11.7,17.34,29.47,22.41,46.23,22.41,20.82,0,40-7.8,44-9.53v.08h9.68c1.84,0,3.41-.53,3.41-2.62-2.1-16.75-8.9-29.57-20.42-38.21C867.68,5.46,855.38,1,842.55,1c-18.58,0-34,6-46.32,18.32a60.6,60.6,0,0,0-7.86,9.91C783.8,21.84,775.77,6,763.21,1.8c-5.93-2-17.75-3.14-30.05,1a59.06,59.06,0,0,0-29.58,21.73V.75C694.16,11.46,686.31,17.24,680.29,18c-2.1.26-1.57,1.57-.26,1.57,3.92,0,9.16,2.88,9.16,8.9v92.91c0,6.55-5,11.26-13.09,11.26a.79.79,0,1,0-.18,1.57h40.75a.8.8,0,0,0,.7-.88.81.81,0,0,0-.7-.69c-8.12,0-13.09-4.71-13.09-11.26V36.08c0-24.34,40.86-28,47.06-27.3,12.57,1.39,18.15,1.39,29.31,12.56M796.75,41l-.36-.53c5.86-22.65,21-37,43.78-37,25.9,0,43.17,17.78,46.06,50.22C882.61,55.21,823.13,81,796.75,41Z"/><path class="cls-1" d="M403.11,168.46V148.93h11.48v1.6h-9.72v7.33h8.88v1.6h-8.87v7.36h9.72v1.64Z"/><path class="cls-1" d="M442.69,153.9a4.52,4.52,0,0,0-4.75-3.79c-2.33,0-4.45,1.57-4.45,3.85,0,1.76,1.1,3,3.08,3.43l3,.69c3,.71,4.88,2.47,4.88,5.22,0,3-2.52,5.46-6.45,5.46-4.28,0-6.65-2.82-7-5.79l1.62-.52A5.15,5.15,0,0,0,438,167.2c3,0,4.72-1.65,4.72-3.76,0-1.82-1.26-3.14-3.48-3.66l-2.94-.68c-2.61-.61-4.51-2.26-4.51-5,0-3,2.91-5.49,6.13-5.49,4,0,5.79,2.3,6.34,4.78Z"/><path class="cls-1" d="M461,158.68c0-6.51,4.75-10.1,9.53-10.1,4.37,0,7.47,2.5,8.38,6.2l-1.57.55a6.58,6.58,0,0,0-6.81-5.16c-4,0-7.77,2.94-7.77,8.51s3.79,8.49,7.77,8.49a6.86,6.86,0,0,0,6.95-5.25l1.51.55a8.33,8.33,0,0,1-8.46,6.29C465.75,168.76,461,165.19,461,158.68Z"/><path class="cls-1" d="M496.37,161.92v-13h1.76v12.91c0,3.44,1.73,5.33,4.92,5.33s4.91-1.89,4.91-5.33v-12.9h1.79v13c0,4.43-2.69,6.84-6.67,6.84S496.37,166.37,496.37,161.92Z"/><path class="cls-1" d="M528.75,168.46V148.93h11.48v1.6h-9.68v7.33h8.87v1.6h-8.87v7.36h9.72v1.64Z"/><path class="cls-1" d="M558.32,168.46V148.93h1.76v17.88h9.83v1.65Z"/><path class="cls-1" d="M598.4,162.39h-9.31l-2.39,6h-1.87l7.92-19.48h2.09l7.88,19.48h-1.86Zm-8.65-1.59h8l-4-10.14Z"/><path class="cls-1" d="M639.85,168.46V148.93h6.07c5,0,9.26,3.38,9.26,9.78s-4.37,9.7-9.31,9.7Zm6-1.54c4,0,7.59-2.72,7.59-8.16s-3.49-8.3-7.53-8.3h-4.29v16.4Z"/><path class="cls-1" d="M673.15,168.46V148.93h11.48v1.6h-9.72v7.33h8.84v1.6h-8.87v7.36h9.72v1.64Z"/><path class="cls-1" d="M722.18,158.68c0-6.51,4.76-10.1,9.54-10.1,4.36,0,7.47,2.5,8.37,6.2l-1.56.55a6.58,6.58,0,0,0-6.81-5.16c-4,0-7.78,2.94-7.78,8.51s3.79,8.49,7.78,8.49a6.86,6.86,0,0,0,6.95-5.25l1.51.55a8.34,8.34,0,0,1-8.43,6.29C726.88,168.76,722.18,165.19,722.18,158.68Z"/><path class="cls-1" d="M765.92,148.58c4.77,0,9.53,3.59,9.53,10.1s-4.76,10.08-9.53,10.08-9.51-3.57-9.51-10.08S761.14,148.58,765.92,148.58Zm0,18.59c4,0,7.77-2.94,7.77-8.49s-3.79-8.51-7.77-8.51-7.75,2.94-7.75,8.51,3.76,8.49,7.75,8.49Z"/><path class="cls-1" d="M792,158.68c0-6.51,4.76-10.1,9.53-10.1,4.37,0,7.47,2.5,8.38,6.2l-1.56.55a6.59,6.59,0,0,0-6.82-5.16c-4,0-7.77,2.94-7.77,8.51s3.79,8.49,7.77,8.49a6.85,6.85,0,0,0,7-5.25l1.51.55a8.33,8.33,0,0,1-8.46,6.29C796.75,168.76,792,165.19,792,158.68Z"/><path class="cls-1" d="M827.62,168.46V148.93h1.75v19.53Z"/><path class="cls-1" d="M862.2,168.46l-11.78-17.31v17.31h-1.76V148.93l7.4,9.73,4.83,1.73,1.42-11.46h1.76v19.53Z"/><path class="cls-1" d="M894.75,162.39h-9.32l-2.39,6h-1.87l7.89-19.48h2.09l7.85,19.5h-1.87Z"/><path class="cls-1" d="M306.75,133.62c-17.48-6.3-30-17.78-37.42-34.35-7.13-16.48-7.54-33.87-.89-52.34s18.07-31.6,34-39.5C318.6-.37,335.59-1.2,353.05,5.1s30,17.78,37.26,34q11.2,24.48,1.23,52.19c-6.66,18.47-18.07,31.6-34.33,39.65C341.18,139.09,324.19,139.92,306.75,133.62Zm65.17-21c8.84-13,12.28-28.68,10.73-46.77-2-19.09-8.69-34.56-20.08-46.18S338,2.75,322.75,4.2c-14.6,1.14-26.11,8.39-35,21.59-8.6,13-12,28.77-10.58,47.1,1.69,19.25,8.11,34.63,19.5,46.25s24.93,16.5,40.54,14.89c14.56-1.14,26.07-8.39,34.67-21.43Z"/><path class="cls-1" d="M285.91,117.77l49.89-2.85s17.06-2.17,24.61,4c4.24,3.45,6.52,8.79,6.78,15.86l1.31,21.16,27.72,1.82v-1c0-.3-1.53-27.59-23-39.06a59.4,59.4,0,0,0-31.29-7.09l-60.21,3Z"/></g></g><g id="Capa_2-3" data-name="Capa 2-3"><g id="Capa_1-2-3" data-name="Capa 1-2-3"><path class="cls-1" d="M17.29,116.78Q-.38,96.35,0,66.53C.75,48.2,6.81,32.76,18.33,20.46,29.86,7.9,44,1.36,61,.83,79.58.31,95.55,5.54,109.16,16.54c11,8.89,6.54,17.53.52,21.2-2.35,1.3-3.92.78-4.45-1.57C99.75,13.92,85.34,2.93,62,2.93c-13.35,0-24.34,6.28-33,18.58S16.25,50.3,16.25,70.71q0,35.34,22,53.39c14.92,11.78,32.72,13.35,53.92,4.19,6.58-2.83,13.58-9.68,20.93-20.94l1.31-2.09c1.31-2.36,2.36-3.14,3.4-2.88,1.84.79,1.58,2.62-.52,5.5-13.35,20.41-31.41,30.36-54.18,29.58C44.51,137.19,29.33,130.12,17.29,116.78Z"/><path class="cls-1" d="M191.34,137.65c-18.58,0-34.28-6.54-46.85-19.63-12.3-13.08-18.58-29.31-18.58-48.94s6.28-35.85,18.58-48.68C157.06,7.58,172.75,1,191.34,1s34.29,6.55,46.59,19.37q18.82,19.23,18.82,48.68c0,19.63-6.28,35.86-18.84,48.94C225.63,131.11,209.92,137.65,191.34,137.65Zm54.18-41.87c3.93-15.18,1.83-31.15-5.76-47.64-8.37-17.27-19.89-29.57-34.55-36.68s-28.79-7.55-42.66-1c-13.35,6-21.72,16.76-25.65,32.2-3.66,15.18-1.57,31.14,6,47.89,8.12,17.54,19.37,29.84,34,36.91s29,7.06,43.18.26c13.4-6,21.78-16.7,25.44-31.93Z"/><path class="cls-1" d="M540.09,132.46l.26.79-.52.78c-18.58,7.07-28.79.53-30.1-19.1-11.51,11.51-27.74,19.89-42.14,20.94-18.58,1.3-32.19-2.62-41.09-11.52-8.63-8.9-13.08-19.37-13.08-31.15V33c0-6-5.24-8.9-9.16-8.9-1.31,0-1.84-1.31.26-1.57,6-.79,13.87-6.54,23.29-17.28V90c0,8.64,1.57,17.28,6.55,27.75,5.23,10.2,16.75,17,33.23,16,8.38-.52,17.54-5,27.22-13.35s14.66-16.49,14.66-24.08V33c0-6-5.23-8.9-9.16-8.9-1.31,0-1.83-1.31.26-1.57,6-.79,13.87-6.54,23.3-17.28V97.38c0,27.22,2.87,34.81,15.44,34.81Z"/><path class="cls-1" d="M564,78c2.61,20.67,11.51,35.85,27,46.06,15.44,10,30.89,11.52,46.07,4.71a43,43,0,0,0,22.77-21.2c2.09-4.45,3.14-5.23,4.45-5,1.83.78,1.57,2.62-.27,5.5-13.08,20.67-31.4,30.36-55.22,29.57-18.06-.78-33-7.33-44.49-20.15-11.26-12.83-17-29.32-17-49.47s6-36.38,18-48.68C577.61,7,593,1,611.63,1,624.45,1,636.75,5.46,648,14.36c11.52,8.64,18.32,21.46,20.41,38.21,0,2.09-1.57,2.62-3.4,2.62H563.21A112.34,112.34,0,0,0,564,78Zm-.79-24.34h92.13c-2.88-32.46-20.16-50.21-46.07-50.21-27,0-43.19,20.1-46.07,50.2Z"/><path class="cls-1" d="M787.49,30.7q-9.3,15.63-9.32,37.31c0,20.15,5.76,36.64,17,49.47,11.52,12.82,26.43,19.37,44.49,20.15,23.82.79,42.14-8.9,55.23-29.57,1.83-2.88,2.09-4.72.26-5.5-1.31-.26-2.36.52-4.45,5a42.87,42.87,0,0,1-22.77,21.2c-15.18,6.81-30.62,5.24-46.06-4.71-15.45-10.21-24.34-25.39-27-46.06a111.84,111.84,0,0,1-.79-22.77v-1.6A84.66,84.66,0,0,1,796,42.23c11.7,17.34,29.47,22.41,46.23,22.41,20.82,0,40-7.8,44-9.53v.08h9.68c1.84,0,3.41-.53,3.41-2.62-2.1-16.75-8.9-29.57-20.42-38.21C867.68,5.46,855.38,1,842.55,1c-18.58,0-34,6-46.32,18.32a60.6,60.6,0,0,0-7.86,9.91C783.8,21.84,775.77,6,763.21,1.8c-5.93-2-17.75-3.14-30.05,1a59.06,59.06,0,0,0-29.58,21.73V.75C694.16,11.46,686.31,17.24,680.29,18c-2.1.26-1.57,1.57-.26,1.57,3.92,0,9.16,2.88,9.16,8.9v92.91c0,6.55-5,11.26-13.09,11.26a.79.79,0,1,0-.18,1.57h40.75a.8.8,0,0,0,.7-.88.81.81,0,0,0-.7-.69c-8.12,0-13.09-4.71-13.09-11.26V36.08c0-24.34,40.86-28,47.06-27.3,12.57,1.39,18.15,1.39,29.31,12.56M796.75,41l-.36-.53c5.86-22.65,21-37,43.78-37,25.9,0,43.17,17.78,46.06,50.22C882.61,55.21,823.13,81,796.75,41Z"/><path class="cls-1" d="M403.11,168.46V148.93h11.48v1.6h-9.72v7.33h8.88v1.6h-8.87v7.36h9.72v1.64Z"/><path class="cls-1" d="M442.69,153.9a4.52,4.52,0,0,0-4.75-3.79c-2.33,0-4.45,1.57-4.45,3.85,0,1.76,1.1,3,3.08,3.43l3,.69c3,.71,4.88,2.47,4.88,5.22,0,3-2.52,5.46-6.45,5.46-4.28,0-6.65-2.82-7-5.79l1.62-.52A5.15,5.15,0,0,0,438,167.2c3,0,4.72-1.65,4.72-3.76,0-1.82-1.26-3.14-3.48-3.66l-2.94-.68c-2.61-.61-4.51-2.26-4.51-5,0-3,2.91-5.49,6.13-5.49,4,0,5.79,2.3,6.34,4.78Z"/><path class="cls-1" d="M461,158.68c0-6.51,4.75-10.1,9.53-10.1,4.37,0,7.47,2.5,8.38,6.2l-1.57.55a6.58,6.58,0,0,0-6.81-5.16c-4,0-7.77,2.94-7.77,8.51s3.79,8.49,7.77,8.49a6.86,6.86,0,0,0,6.95-5.25l1.51.55a8.33,8.33,0,0,1-8.46,6.29C465.75,168.76,461,165.19,461,158.68Z"/><path class="cls-1" d="M496.37,161.92v-13h1.76v12.91c0,3.44,1.73,5.33,4.92,5.33s4.91-1.89,4.91-5.33v-12.9h1.79v13c0,4.43-2.69,6.84-6.67,6.84S496.37,166.37,496.37,161.92Z"/><path class="cls-1" d="M528.75,168.46V148.93h11.48v1.6h-9.68v7.33h8.87v1.6h-8.87v7.36h9.72v1.64Z"/><path class="cls-1" d="M558.32,168.46V148.93h1.76v17.88h9.83v1.65Z"/><path class="cls-1" d="M598.4,162.39h-9.31l-2.39,6h-1.87l7.92-19.48h2.09l7.88,19.48h-1.86Zm-8.65-1.59h8l-4-10.14Z"/><path class="cls-1" d="M639.85,168.46V148.93h6.07c5,0,9.26,3.38,9.26,9.78s-4.37,9.7-9.31,9.7Zm6-1.54c4,0,7.59-2.72,7.59-8.16s-3.49-8.3-7.53-8.3h-4.29v16.4Z"/><path class="cls-1" d="M673.15,168.46V148.93h11.48v1.6h-9.72v7.33h8.84v1.6h-8.87v7.36h9.72v1.64Z"/><path class="cls-1" d="M722.18,158.68c0-6.51,4.76-10.1,9.54-10.1,4.36,0,7.47,2.5,8.37,6.2l-1.56.55a6.58,6.58,0,0,0-6.81-5.16c-4,0-7.78,2.94-7.78,8.51s3.79,8.49,7.78,8.49a6.86,6.86,0,0,0,6.95-5.25l1.51.55a8.34,8.34,0,0,1-8.43,6.29C726.88,168.76,722.18,165.19,722.18,158.68Z"/><path class="cls-1" d="M765.92,148.58c4.77,0,9.53,3.59,9.53,10.1s-4.76,10.08-9.53,10.08-9.51-3.57-9.51-10.08S761.14,148.58,765.92,148.58Zm0,18.59c4,0,7.77-2.94,7.77-8.49s-3.79-8.51-7.77-8.51-7.75,2.94-7.75,8.51,3.76,8.49,7.75,8.49Z"/><path class="cls-1" d="M792,158.68c0-6.51,4.76-10.1,9.53-10.1,4.37,0,7.47,2.5,8.38,6.2l-1.56.55a6.59,6.59,0,0,0-6.82-5.16c-4,0-7.77,2.94-7.77,8.51s3.79,8.49,7.77,8.49a6.85,6.85,0,0,0,7-5.25l1.51.55a8.33,8.33,0,0,1-8.46,6.29C796.75,168.76,792,165.19,792,158.68Z"/><path class="cls-1" d="M827.62,168.46V148.93h1.75v19.53Z"/><path class="cls-1" d="M862.2,168.46l-11.78-17.31v17.31h-1.76V148.93h2.42l11.23,16.62V148.93h1.76v19.53Z"/><path class="cls-1" d="M894.75,162.39h-9.32l-2.39,6h-1.87l7.89-19.48h2.09l7.85,19.5h-1.87Zm-8.69-1.59h8l-4-10.14Z"/><path class="cls-1" d="M306.75,133.62c-17.48-6.3-30-17.78-37.42-34.35-7.13-16.48-7.54-33.87-.89-52.34s18.07-31.6,34-39.5C318.6-.37,335.59-1.2,353.05,5.1s30,17.78,37.26,34q11.2,24.48,1.23,52.19c-6.66,18.47-18.07,31.6-34.33,39.65C341.18,139.09,324.19,139.92,306.75,133.62Zm65.17-21c8.84-13,12.28-28.68,10.73-46.77-2-19.09-8.69-34.56-20.08-46.18S338,2.75,322.75,4.2c-14.6,1.14-26.11,8.39-35,21.59-8.6,13-12,28.77-10.58,47.1,1.69,19.25,8.11,34.63,19.5,46.25s24.93,16.5,40.54,14.89c14.56-1.14,26.07-8.39,34.67-21.43Z"/><path class="cls-1" d="M285.91,117.77l49.89-2.85s17.06-2.17,24.61,4c4.24,3.45,6.52,8.79,6.78,15.86l1.31,21.16,27.72,1.82v-1c0-.3-1.53-27.59-23-39.06a59.4,59.4,0,0,0-31.29-7.09l-60.21,3Z"/></g></g></g></g></g></g></svg>