<svg xmlns="http://www.w3.org/2000/svg" viewBox="0 0 2411.64 544.59"><defs><style>.cls-1{fill:#e6d94c;}</style></defs><g id="Capa_2" data-name="Capa 2"><g id="Capa_1-2" data-name="Capa 1"><g id="Capa_2-2" data-name="Capa 2"><g id="Capa_1-2-2" data-name="Capa 1-2"><g id="Capa_1-2-2-2" data-name="Capa 1-2-2"><path class="cls-1" d="M1253.09,256.92l-1-3.63a.66.66,0,0,0,0-.92.5.5,0,0,0-.19-.13c-.28-.16-.52,0-.7.29,0,3.22-.1,6.43-.1,9.66q0,137.83.13,275.67c0,4.87-1.41,5.6-5.77,5.55q-28.18-.37-56.39,0c-4.59.07-6-.86-6-5.8q.21-268.3.13-536.61H1252c2,2.14,2.24,4.84,2.53,7.55a4.27,4.27,0,0,0,1.18,4c3.89,10.17,6.31,20.79,9.32,31.21,7.89,27.36,15.54,54.78,23.75,82.69,4.19-13.72,7.71-27.09,11.61-40.33,1.17-4,1.86-8.07,3.77-11.78.79-1.12,1.8-2.15,1.3-3.73a5.39,5.39,0,0,1,1-3.36c1.18-1.11.85-2.52.74-3.89,2.65-11.76,6.51-23.17,9.71-34.77,2-7.19,3.59-14.5,6.45-21.42.77-1.12,1.83-2.14,1.36-3.74-.1-1.19.67-1.84,1.54-2.43h68.79q0,269,.12,538c0,4.54-1.18,5.43-5.48,5.38q-29.12-.39-58.22,0c-3.77,0-4.37-1.17-4.37-4.58q.14-141.75.07-283.48v-5l-.81-.22q-7.9,27.36-15.83,54.73c-.57.85-1.37,1.63-.88,2.82l-1,3.62c-.58.85-1.38,1.63-.89,2.82q-8.27,29-16.54,58c-.58.86-1.37,1.64-.88,2.83-.44,1.39-.87,2.79-1.3,4.19h-1l-2.15-7.87c.49-1.19-.29-2-.87-2.82l-31-109.66C1254.45,258.55,1253.66,257.77,1253.09,256.92Z"/><path class="cls-1" d="M459.49,1q0,267.36.11,535.57c0,4.5-.87,5.8-5.62,5.73-22.75-.29-45.5-.23-68.25,0-3.82,0-4.74-.88-4.74-4.72.13-80,.06-159.94.2-239.9,0-4.36-.89-5.59-5.41-5.51-17.68.3-35.36.24-53,0-3.7,0-4.47,1-4.47,4.56q.15,120.18.18,240.36c0,4.19-1,5.22-5.21,5.18q-34.35-.32-68.71,0c-3.93,0-4.68-1-4.68-4.79C240,358.51,240,0,240,0h78.7c2.08,2.53,1.49,5.56,1.49,8.42V197.07c0,10.89-.62,9.9,10.05,9.93h42.19c7.73,0,7.76,0,7.76-7.63V6.68c-.6-2.14-.7-4.34.89-5.68Z"/><path class="cls-1" d="M1160,533.46c-2.8-21.9-5.25-43.85-7.86-65.78-3.23-27.1-6.53-54.2-9.74-81.31-2.33-19.61-4.55-39.23-6.81-58.84l-3-26.35c-1.41-11.74-3-23.46-4.31-35.21-1.06-9.16-1.85-18.35-2.85-27.52-1.13-10-2.4-20-3.64-30-.78-6.29-1.15-12.65-2.08-18.88-1.36-9.37-2.33-18.9-3.36-28.18s-2.17-18.56-3.08-27.87c-1-10-2.48-20-3.48-30-.61-6-1.51-12-2-18-.76-9.42-2.42-18.86-3.49-28.15s-1.8-18.61-2.87-27.89c-1.09-9.57-2.4-19-3.62-28.57L981.59,1a4.9,4.9,0,0,0-1.94,4,138,138,0,0,1-.91,14.51c-1.08,9.55-2.47,19.07-3.58,28.61-.75,6.44-1.21,12.94-2.11,19.33-1.34,9.53-2.26,19.1-3.4,28.64-1.09,8.82-2.32,17.62-3,26.5-.74,9.72-2.33,19.38-3.53,29.07-.78,6.28-1.17,12.64-2.07,18.88-1.31,9.06-2.17,18.18-3.4,27.25-1.27,9.25-1.55,18.65-3,27.87-1.52,9.66-2.29,19.39-3.52,29.08-.81,6.42-1.32,12.88-2.09,19.31-1.09,9.1-2.37,18.17-3.44,27.27-.77,6.44-1,12.95-2,19.35-1.6,9.81-2.6,19.67-3.6,29.53-.64,6.15-1.25,12.33-2.11,18.41-1.33,9.53-2.24,19.1-3.39,28.64-1.1,8.82-2.32,17.62-3,26.5-.74,9.72-2.34,19.38-3.53,29.07-.78,6.28-1.19,12.64-2.07,18.88-1.36,9.67-2,19.43-3.53,29.07-1,6.53-1.31,13-2.54,19.64s-1.26,13.52-2.07,20.26c-.43,3.61,1.42,4.46,4.18,3.61a26.4,26.4,0,0,1,8.11-.81q27.19-.06,54.41,0c2.4,0,4.76-.15,7.2.75,3.07,1.15,5.1-.48,5.44-3.76.68-6.45,1.26-12.91,1.89-19.37.6-6.14,1.24-12.32,2.12-18.4,1.3-9.22,2.22-18.49,3.3-27.73,1.08-9,2.73-17.93,3-27,0-1.8,1-3.16,3.46-3.16,18.9.07,37.81,0,56.72,0,1.63,0,2.34.29,2.52,2.2,1.47,15.88,3.39,31.71,5.39,47.53,1.92,14.94,3.15,29.94,4.71,44.94.31,3,.92,5.22,5.07,5,8-.43,16-.13,24-.13,15.57,0,31,0,46.57-.06,1.24,0,3.65,1.17,3.59-1.33C1159.4,539.76,1160.44,536.76,1160,533.46ZM1057.76,360.74c-13.34-.07-26.68,0-39.9,0,7.06-60.59,14.08-120.83,21.09-181.07h.47c1,9.72,1.93,19.45,3.09,29.15,1.73,14.45,3.71,28.88,5.44,43.33.81,6.73,1.17,13.52,1.94,20.26,1.08,9.39,2.68,18.73,3.43,28.15.51,6.32,1.45,12.57,2.12,18.85,1,9.7,2.39,19.37,3.53,29.06.38,3.29-.11,6.64,1,9.9C1060.53,360,1059.61,360.75,1057.76,360.74Z"/><path class="cls-1" d="M714.58,531.71c-1.93-14.12-3.42-28.31-5.1-42.47-1-8.57-2.09-17.14-3.17-25.94-11.18,8.27-21.84,16.17-32.57,24-1.2.87-2.87,1.89-4.2.78s-.35-2.64.22-4.11c2.71-7,4.65-14.29,7.16-21.38,2.06-5.79,3.66-11.82,5.66-17.7.94-2.74,2.76-6.92-1.34-8.92-5.52-2.72-9.64-7.22-14.69-10.54-7.23-4.76-14-10.17-21.1-15.17-1.15-.81-2.64-1.24-2.25-2.89.48-2,2.32-1,3.48-1q21.68-.06,43.34,0c2,0,4.35.17,5.17-2,1.52-4,3.39-7.79,2.72-12.47-1.64-11.38-2.7-22.83-4.06-34.24-1.72-14.42-3.56-28.81-5.24-43.23-1.43-12.08-2.67-24.18-4-36.26l-3-26.18c-1.11-9.27-2.42-18.5-3.47-27.79s-1.78-18.64-2.86-27.89-2.53-18.45-3.59-27.69c-1.08-9.43-1.78-18.91-2.86-28.34-1.07-9.25-2.53-18.45-3.6-27.69-1.08-9.43-1.75-18.91-2.85-28.35-1.72-14.62-3.7-29.2-5.46-43.82-1.63-13.42-3.1-26.86-4.63-40.3L534.26,0c.58,8.69-1.17,17.24-2.09,25.79q-1.51,13.88-3.39,27.7c-.92,6.42-1.26,12.91-2,19.36-1.14,10-2.43,20-3.62,30-.7,6-1.52,12-2,18-.78,9.61-2.39,19.06-3.51,28.61-.75,6.44-1.21,12.94-2.11,19.33-1.28,9.07-2.16,18.18-3.38,27.25-1.26,9.26-1.56,18.65-3,27.87-1.53,9.66-2.26,19.39-3.53,29.07-.82,6.28-1.18,12.64-2.08,18.88-1.3,9.06-2.16,18.18-3.4,27.25-1.27,9.25-1.56,18.65-3,27.86-1.53,9.82-2.34,19.7-3.53,29.54-.71,5.83-1.21,11.69-1.92,17.52-1.16,9.54-2.62,19-3.56,28.6-.63,6.46-1.63,12.86-2.09,19.35-.7,9.72-2.3,19.38-3.51,29.07-.79,6.28-1.11,12.65-2.06,18.87-1.8,11.74-2.59,23.58-4.35,35.32-1.48,10-2.32,20-3.76,30-1,6.61-.15,7.58,6.78,6.48a22.61,22.61,0,0,1,3.68,0c17.52,0,35-.07,52.57,0,3.77,0,7.58-.56,11.32.83,3,1.13,4.53-.93,4.86-3.45.89-6.28,1.51-12.58,2-18.89.51-6.47,1.33-12.92,2.18-19.32,1.24-9.38,2.19-18.8,3.32-28.19,1.07-8.81,2.55-17.59,2.92-26.5.08-1.81,1-3.13,3.5-3.13,18.75.12,37.5.06,56.25.06,1.62,0,2.78-.15,3,2.22,1.46,15.88,3.37,31.7,5.37,47.52,1.93,14.94,3.15,29.94,4.71,44.94.32,3,1,5.13,5.09,4.93,8.59-.42,17.21-.13,25.82-.13q22.37,0,44.73-.06c1.23,0,3.64,1.17,3.57-1.35C714,538,715,535,714.58,531.71ZM612.06,359.84c-13.19-.13-26.39-.06-39.74-.06q10.56-90.67,21-180.83l.62-.09c1.31,12.72,2.36,25.48,4,38.17,2,16,3.79,31.93,5.56,47.92,1.51,13.59,3.1,27.18,4.66,40.77,1.49,13,3,26,4.64,38.93.5,3.83.12,7.81,1.54,11.59C614.89,357.69,615.26,359.87,612.06,359.84Z"/><path class="cls-1" d="M1596.19,1V508c0,15.34-9.69,29.46-24.25,34.17a30.1,30.1,0,0,1-14.65,1.1,67.43,67.43,0,0,0-12.46-.7c-30.44,0-60.86-.09-91.29,0-19.58.06-35.36-16.48-35.35-35.05q.13-253.29,0-506.56h70.5c1.23,1.35,1.39,3,1.45,4.73.07,2.15,0,4.3,0,6.44V455.92c.23,7.65,5.08,14,11.92,15.69,8.36,2.05,16-1,20.06-7.77a13.73,13.73,0,0,0,2-6.54c.09-2.46.07-4.91.07-7.37V10.33c0-3.15-.76-6.5,1.48-9.33Z"/><path class="cls-1" d="M1778,1.86c15.73,4.37,23.18,16.18,27.46,30.7a54.15,54.15,0,0,1,2.09,15.86q-.22,35.22,0,70.44c0,3.38-1.11,5.1-3.92,6.81-20.47,12.42-40.81,25-61.21,37.58-1.15.71-2.32,1.39-4.19,2.5v-4.42c0-22.7-.33-45.42.16-68.11.21-9.42-4.86-14-12-15.92-11.67-3.1-21.38.59-26.16,12.5-1.14,2.83.12,5,.12,7.48-.09,36.22.1,72.44,0,108.66,0,3.91,1.33,5.91,4.49,8,32.86,21.47,66.57,41.6,100,62.22,2.67,1.65,3.74,3.27,3.73,6.45-.1,71.83.08,143.66-.18,215.49-.07,18.22-7.1,33.59-23.43,43.17-4.85,2.85-10.9,2.91-16.56,1.78a36.43,36.43,0,0,0-7.29-.74c-31,0-62.11-.1-93.16.06a30.52,30.52,0,0,1-23.57-10.53,49,49,0,0,1-13-33.54c-.23-51.72-.09-103.44-.09-155.17V339c1.58-.61,2.41.59,3.36,1.17,20.94,12.83,41.82,25.75,62.79,38.53,2.43,1.47,3.17,3.09,3.15,5.86-.14,16.73.42,33.48-.28,50.18-.34,8,8.53,15.46,14.34,16.56,10.34,2,17.68-1.44,23.49-10.13a7,7,0,0,0,1.15-4.22c0-31.92-.06-63.85.08-95.77,0-2.81-1.23-4.07-3.27-5.38-33.88-21.87-67.6-44-102.18-64.77-2.74-1.65-3.63-3.4-3.62-6.51q.12-106.59,0-213.18c-.06-20.6,5.46-38.08,24-49.53,1.77-1,3.89.33,5.63-.84H1671c1.58.9,3.31.45,5,.45q48.59,0,97.17.05C1774.63,1.5,1776.35,1.12,1778,1.86Z"/><path class="cls-1" d="M208.59,1c0,24.56-.07,49.11.07,73.67,0,3.47-.67,4.65-4.44,4.61-17.52-.23-35.05,0-52.57-.21-4.44-.07-5.83.77-5.82,5.62q.24,226.07.25,452.14c0,4.83-1.24,5.93-6,5.87q-33.42-.41-66.86,0c-4.4,0-5.52-1-5.52-5.45q.21-214.33.11-428.66c0-8.13-.2-16.28.09-24.4.1-3.85-.62-5.19-4.9-5.13-19.51.27-39,0-58.56.21C.67,79.27,0,78.14,0,74.67.14,50.11.07,25.56.07,1Z"/><path class="cls-1" d="M802.65,1c-.07,1.68-.19,3.37-.19,5.05q0,230.49-.13,461c0,4.74,1.24,5.67,5.77,5.64,30.28-.22,60.57-.06,90.86-.19,3.34,0,4.36.64,4.33,4.2-.2,21-.16,42.05,0,63.08,0,2.94-.67,3.83-3.75,3.82q-84.39-.15-168.8-.06c-2.56,0-4.73.26-4.7-3.64.15-23.17.07-46.34.07-70.29,4.39,3.5,8.93,6,12.73,9.23,4.81,4.1,10.26,7.23,15.08,11.23.53.44,1.49,1.6,2.28.59a3.17,3.17,0,0,0,.25-2.62c-4.34-11.09-7.54-22.53-11.27-33.8-1.27-3.83-2.14-7.91-4.08-11.67-2.34-4.56,2.93-5.77,5.27-7.57,7.83-6,16.15-11.37,23.79-17.67,2.33-1.92,5.21-3.34,7.79-5.09,1.7-1.15,2.94-2.41,2.37-4.24-.49-1.6-2.4-.74-3.63-.74-14.15-.07-28.29-.15-42.43,0-3,0-4.21-1.25-5.4-3.64-2.63-5.34-2.8-10.93-2.8-16.72q.11-193,0-385.91Z"/><path class="cls-1" d="M1777.73,2H1675c-1.49,0-3.11.38-4.36-1h107A4.19,4.19,0,0,1,1777.73,2Z"/><path class="cls-1" d="M1659.6,1c-1.7,1.47-3.72.77-5.63.84a1.17,1.17,0,0,1,.1-.84Z"/><path class="cls-1" d="M1251.06,252.19c-.08-.73-.09-1.83.83-1.54,1.5.46.8,1.49.08,2.3Z"/><path class="cls-1" d="M1252.94,256.58c1.9.44,2.15,1.39.88,2.82C1253.31,258.53,1252.66,257.7,1252.94,256.58Z"/><path class="cls-1" d="M1309.9,308.22c-1.32-1.45-1-2.38.89-2.82A3.56,3.56,0,0,1,1309.9,308.22Z"/><path class="cls-1" d="M1308.05,314.67c-1.27-1.43-1-2.39.89-2.83A3.7,3.7,0,0,1,1308.05,314.67Z"/><path class="cls-1" d="M1285.19,369c1.86.45,2.2,1.37.88,2.82C1285.57,370.9,1284.93,370.07,1285.19,369Z"/><path class="cls-1" d="M1290.53,375.43c-1.32-1.45-1-2.38.89-2.83A3.57,3.57,0,0,1,1290.53,375.43Z"/><path class="cls-1" d="M1324.88,6.14a3.56,3.56,0,0,1,.89-2.82C1327.09,4.77,1326.75,5.69,1324.88,6.14Z"/><path class="cls-1" d="M1253.63,8.84c.53.87,1.17,1.71.88,2.83C1252.63,11.22,1252.33,10.28,1253.63,8.84Z"/><path class="cls-1" d="M1307.36,66.93a3.55,3.55,0,0,1,.88-2.82C1309.52,65.54,1309.26,66.49,1307.36,66.93Z"/><path class="cls-1" d="M1305.51,73.43a3.5,3.5,0,0,1,.89-2.82C1307.71,72,1307.38,72.93,1305.51,73.43Z"/></g></g></g><g id="Capa_2-3" data-name="Capa 2"><g id="Capa_1-2-3" data-name="Capa 1-2"><path class="cls-1" d="M1915.09,271.13c0,7.88.44,15.66,1.17,23.4a44.55,44.55,0,0,1,70,10.31l24.32-8.42a32.84,32.84,0,0,1-.39-4.86,29.33,29.33,0,0,1,4.09-14.89L1922.59,212A237.17,237.17,0,0,0,1915.09,271.13Z"/><path class="cls-1" d="M2205.85,471.87l-56.73-78.72a30.52,30.52,0,0,1-42.5-7.42l-.41-.61-33.09,24.33a21.45,21.45,0,0,1-42.86-.29,23.5,23.5,0,0,1,.48-4.58l-46.46-53.18a44.2,44.2,0,0,1-47.88,18.35,248.15,248.15,0,0,0,226.83,144.64,251.62,251.62,0,0,0,26.61-1.41,39.12,39.12,0,0,1-1.21-9.39A37.84,37.84,0,0,1,2205.85,471.87Z"/><path class="cls-1" d="M2239.86,368.14h-2.39l-3.21,98.43A38,38,0,0,1,2263,493.86a248.82,248.82,0,0,0,91.37-67.68A22.39,22.39,0,0,1,2333,403.85a23.09,23.09,0,0,1,1.36-7.54l-64.07-52.79A31.14,31.14,0,0,1,2239.86,368.14Z"/><path class="cls-1" d="M2208.62,243.54a40.38,40.38,0,0,1-21.7-6.47L2159,265a19.18,19.18,0,0,1,4.23,12.11,19.46,19.46,0,0,1-19.46,19.46h0L2141,339.24a30.51,30.51,0,0,1,13.53,49.14l57.85,80.08a37.62,37.62,0,0,1,14.06-2.72h.48l3.26-99.11a31.24,31.24,0,1,1,25.45-56.58l26.76-24.33a24.34,24.34,0,0,1-3.75-28.17l-35.85-32.21A40.53,40.53,0,0,1,2208.62,243.54Z"/><path class="cls-1" d="M2367.57,133.14l-57.36,43.79a14.73,14.73,0,0,1,1.22,5.89,15.43,15.43,0,1,1-18.25-15.08L2296.1,88a18.12,18.12,0,0,1-12.41-7l-31.91,25.88a14,14,0,1,1-22.38,16L2199.33,133a10.46,10.46,0,0,1,0,1.12,7.76,7.76,0,0,1-2,5.2l9.09,23.31h2.1a40.53,40.53,0,0,1,40.72,40.33v.1a41,41,0,0,1-2.73,14.6l36.84,33.08a25,25,0,1,1,17.36,43,24.37,24.37,0,0,1-12.6-3.55l-26.61,24.33a31.14,31.14,0,0,1,9.73,19.75l67.19,55.47a22.34,22.34,0,0,1,38.15,6.13,238.94,238.94,0,0,0-8.81-262.73Z"/><path class="cls-1" d="M2314.05,78a18,18,0,0,1-11.53,9.49l-3.06,80.27a15.19,15.19,0,0,1,6,3L2363,127A246.18,246.18,0,0,0,2314.05,78Z"/><path class="cls-1" d="M2280,70.14a17.84,17.84,0,0,1,4.18-11.39,251.94,251.94,0,0,0-287.06,31.82l16.5,28.56A46.75,46.75,0,0,1,2030.4,116a46.24,46.24,0,0,1,31.09,12l55-43.21a27.84,27.84,0,1,1,23.74,13.33,26.17,26.17,0,0,1-6.76-.92l-11.58,120.42a18.55,18.55,0,0,1,4.87,29.19l7.59,13.18a18.75,18.75,0,0,1,19.46,0l27.58-27.63a40.48,40.48,0,0,1,20.44-69.58l-8.32-21.36a8.66,8.66,0,0,1-1.61,0,7.83,7.83,0,0,1,0-15.66h0a7.62,7.62,0,0,1,5.36,2.82l31.09-10.41a7,7,0,0,1,0-1.12A14.09,14.09,0,0,1,2242.44,103a13.27,13.27,0,0,1,5.4,1.12l33.37-27.59A18.75,18.75,0,0,1,2280,70.14Z"/><path class="cls-1" d="M2113.26,252.73a18.68,18.68,0,0,1,0-37.36,12.68,12.68,0,0,1,1.51,0l11.68-121.2a27.74,27.74,0,0,1-5.36-3.84l-54.68,43a46.47,46.47,0,0,1-34.84,75.61v54.68a28.42,28.42,0,0,1,7.88-1.12,29.2,29.2,0,0,1,29.2,26.52l21.6-2.24a7.34,7.34,0,0,1,6.86-4.86,7.21,7.21,0,0,1,6.18,3.5l22.18-2.29a18.89,18.89,0,0,1,4.87-20.09l-7.49-13A18.47,18.47,0,0,1,2113.26,252.73Z"/><path class="cls-1" d="M2127.56,287.81l-23.35,2.39a7.29,7.29,0,0,1-7.2,6.32,7.21,7.21,0,0,1-6.86-4.86l-21.65,2.23a29.19,29.19,0,0,1-55.81,9.74l-23.45,8.12a44.16,44.16,0,0,1-1.17,32.84L2034,397.14a21.36,21.36,0,0,1,37.71,4.33l31.24-23a30.42,30.42,0,0,1,28.7-40.87h3l2.43-42.18A19.4,19.4,0,0,1,2127.56,287.81Z"/><path class="cls-1" d="M2007.54,121.9l-15.48-26.85A242.43,242.43,0,0,0,1955.77,138l29.73,11.77A46.59,46.59,0,0,1,2007.54,121.9Z"/><path class="cls-1" d="M1983.74,162.48a42.48,42.48,0,0,1,.78-8.12L1953,142.1a239.94,239.94,0,0,0-28.21,62.37l94,66.66a33.34,33.34,0,0,1,5.45-4.24V208.51A46.52,46.52,0,0,1,1983.74,162.48Z"/></g></g></g></g></svg>